<svg
   version="1.1"
   height="1957.061"
   width="1665.8362"
   viewBox="0 0 341.16325 400.8061"
   id="Layer_1">
  <g
     style="fill:#000000"
     transform="matrix(4.67988,0,0,4.67988,-14713.412,-100395.7)"
     id="g18086">
    <g
       transform="translate(2886.772,21269.267)"
       id="bag_1_">
      <g
         id="handles_1_">
        <path
           d="m 292.3,191.3 c -3.7,1.3 -6.4,2.4 -6.4,9.4 v 3.4 l 2.2,-0.4 v -2.9 c -0.1,-4.8 1.2,-5.8 4.4,-7.2 0,-0.9 0,-1.7 -0.2,-2.3 z"
           class="st1"
           id="path205" />
        <path
           d="m 298.7,189.8 c 0.1,0.7 0.3,1.4 0.3,2.2 5.8,-0.8 5.7,1.6 5.7,6.5 v 1.8 l 2.2,-0.4 v -1.4 c 0,-7.7 -1.2,-9.8 -8.2,-8.7 z"
           class="st1"
           id="path207" />
        <path
           d="m 276,206.1 v -10.2 c -0.1,-6.3 3.2,-8.2 9.2,-9.6 9,-2.1 9.6,3.7 9.6,7.4 v 8.6 l 2.2,-0.4 v -8 c 0,-7 -2.2,-12.3 -12.3,-10 -5.4,1.2 -10.9,2.6 -10.9,11.8 v 10.8 z"
           class="st1"
           id="path209" />
      </g>
      <path
         d="m 318,200.4 -60.8,12.2 v 44.2 l 60.8,12.2 12.1,-4.4 v -59.7 z m -34.2,47.2 -13.5,-1.9 v -11.2 h 13.5 z m 0,-14.8 h -13.5 v -10.3 l 13.5,-1.9 z m 18.7,17.4 -17,-2.5 v -13.2 h 17 z m 0,-17.4 h -17 v -12.3 l 17,-2.5 z"
         class="st1"
         id="path211" />
    </g>
  </g>
</svg>
