<?xml version="1.0"?>
<svg xmlns="http://www.w3.org/2000/svg" height="512px" version="1.1" viewBox="-58 1 511 511.99995" width="512px">
<g id="surface1">
<path d="M 314.609375 123.257812 L 381.113281 123.257812 L 279.527344 16.660156 L 279.527344 88.3125 C 279.527344 107.683594 295.101562 123.257812 314.609375 123.257812 Z M 314.609375 123.257812 " style=" fill-rule:nonzero;fill-opacity:1;" stroke="#FFFFFF" fill="#FFFFFF"/>
<path d="M 257.855469 88.3125 L 257.855469 0 L 49.804688 0 C 22.847656 0 0.5 22.214844 0.5 49.167969 L 0.5 462.832031 C 0.5 489.789062 22.847656 512 49.804688 512 L 346.710938 512 C 373.664062 512 396.011719 489.785156 396.011719 462.832031 L 396.011719 144.929688 L 314.605469 144.929688 C 283.183594 144.929688 257.855469 119.601562 257.855469 88.3125 Z M 166.15625 354.742188 L 204.082031 174.59375 C 205.300781 168.769531 211.125 164.976562 216.949219 166.195312 C 222.773438 167.414062 226.566406 173.242188 225.347656 179.066406 L 187.421875 359.210938 C 186.335938 364.359375 181.867188 367.882812 176.855469 367.882812 C 176.179688 367.882812 175.367188 367.746094 174.554688 367.609375 C 168.59375 366.257812 164.800781 360.566406 166.15625 354.742188 Z M 66.464844 266.160156 C 66.464844 263.042969 67.820312 259.929688 70.257812 257.898438 L 131.074219 206.019531 C 135.679688 202.089844 142.449219 202.632812 146.378906 207.238281 C 150.308594 211.84375 149.765625 218.617188 145.160156 222.542969 L 93.960938 266.160156 L 145.160156 309.773438 C 149.765625 313.703125 150.308594 320.472656 146.378906 325.078125 C 144.210938 327.652344 141.230469 328.871094 138.117188 328.871094 C 135.679688 328.871094 133.105469 328.058594 131.074219 326.296875 L 70.257812 274.421875 C 67.820312 272.390625 66.464844 269.410156 66.464844 266.160156 Z M 309.730469 440.210938 L 86.78125 440.210938 C 80.820312 440.210938 75.945312 435.335938 75.945312 429.375 C 75.945312 423.414062 80.820312 418.539062 86.78125 418.539062 L 309.867188 418.539062 C 315.828125 418.539062 320.703125 423.414062 320.703125 429.375 C 320.703125 435.335938 315.828125 440.210938 309.730469 440.210938 Z M 330.050781 266.160156 C 330.050781 269.273438 328.695312 272.390625 326.257812 274.421875 L 265.441406 326.296875 C 263.410156 328.058594 260.96875 328.871094 258.398438 328.871094 C 255.28125 328.871094 252.300781 327.519531 250.132812 325.078125 C 246.207031 320.472656 246.746094 313.703125 251.351562 309.773438 L 302.554688 266.160156 L 251.351562 222.542969 C 246.746094 218.617188 246.207031 211.84375 250.132812 207.238281 C 254.0625 202.632812 260.835938 202.089844 265.441406 206.019531 L 326.257812 257.898438 C 328.695312 260.0625 330.050781 263.042969 330.050781 266.160156 Z M 330.050781 266.160156 " style=" fill-rule:nonzero;fill-opacity:1;" stroke="#FFFFFF" fill="#FFFFFF"/>
</g>
</svg>
